# Blender 4.1.0
# www.blender.org
mtllib Knife.mtl
o Knife
v -0.121141 0.000000 0.255913
v -0.121141 1.698342 0.255913
v -0.121141 0.000000 -0.255913
v -0.121141 1.698342 -0.255913
v 0.121141 0.000000 0.255913
v 0.121141 1.698342 0.255913
v 0.121141 0.000000 -0.255913
v 0.121141 1.698342 -0.255913
v -0.041869 6.513619 -0.255913
v 0.041869 6.513619 -0.255913
v 0.041869 1.698342 0.770334
v -0.041869 1.698342 0.770334
v 0.041869 4.881695 0.504222
v -0.041869 4.881695 0.504222
vn -1.0000 -0.0000 -0.0000
vn -0.0000 -0.0000 -1.0000
vn 1.0000 -0.0000 -0.0000
vn -0.0000 -0.0000 1.0000
vn -0.0000 -1.0000 -0.0000
vn 0.9999 0.0165 -0.0000
vn -0.9999 0.0165 -0.0000
vn 0.9962 0.0182 0.0852
vn -0.0000 0.0833 0.9965
vn -0.0000 0.4222 0.9065
vn -0.9962 0.0182 0.0852
vt 0.638438 0.746002
vt 0.904182 0.746002
vt 0.904183 0.855273
vt 0.638438 0.855273
vt 0.904183 0.964545
vt 0.638438 0.964545
vt 0.638438 0.527458
vt 0.904182 0.527458
vt 0.904183 0.636730
vt 0.638438 0.636730
vt 0.529166 0.746002
vt 0.529166 0.636730
vt 0.582337 0.164883
vt 0.677375 0.241403
vt 0.149150 0.897451
vt 0.175661 0.031332
vt 0.298060 0.042975
vt 0.095295 0.876257
vt 0.274237 0.554391
vt 0.397080 0.259404
vt 0.052849 0.025505
vt 0.052849 0.874243
vt 0.373454 0.240559
vt 0.245642 0.542178
s 0
f 1/1/1 2/2/1 4/3/1 3/4/1
f 3/4/2 4/3/2 8/5/2 7/6/2
f 7/7/3 8/8/3 6/9/3 5/10/3
f 5/10/4 6/9/4 2/2/4 1/1/4
f 3/11/5 7/12/5 5/10/5 1/1/5
f 6/13/6 8/14/6 10/15/6
f 4/16/7 2/17/7 9/18/7
f 6/13/8 10/15/8 13/19/8 11/20/8
f 8/21/2 4/16/2 9/18/2 10/22/2
f 12/23/9 11/20/9 13/19/9 14/24/9
f 10/15/10 9/18/10 14/24/10 13/19/10
f 2/17/5 6/13/5 11/20/5 12/23/5
f 9/18/11 2/17/11 12/23/11 14/24/11
